ffmpeg started on 2025-07-20 at 11:39:52
Report written to "D:\Convert\FFMetrics\reports\psnr_report-6.txt"
Log level: 32
Command line:
ffmpeg -hide_banner -nostdin -i "G:\\\xc0\xed\xe8\xec\xe5\\\xce\xed\xe3\xee\xe8\xed\xe3\xe8\\!_10_\xc2\xe5\xf1\xed\xe0_2018\\\xcf\xee\xf2\xe5\xf0\xff\xed\xed\xe0\xff \xef\xe5\xf1\xed\xff\\[SHIZA Project] Lost Song ONA [01] [MVO]_HEVC.mkv" -i "G:\\\xc0\xed\xe8\xec\xe5\\\xce\xed\xe3\xee\xe8\xed\xe3\xe8\\!_10_\xc2\xe5\xf1\xed\xe0_2018\\\xcf\xee\xf2\xe5\xf0\xff\xed\xed\xe0\xff \xef\xe5\xf1\xed\xff\\[SHIZA Project] Lost Song ONA [01] [MVO].mkv" -lavfi "[0:v]settb=AVTB,setpts=PTS-STARTPTS,format=pix_fmts=yuv420p10,fps=24000/1001,scale=1280:720:flags=bicubic[main];[1:v]settb=AVTB,setpts=PTS-STARTPTS,format=pix_fmts=yuv420p,fps=24000/1001,scale=1280:720:flags=bicubic[ref];[main][ref]psnr=eof_action=endall:stats_file='D\\:/Convert/FFMetrics/logs/psnr_logfile-6.txt'" -f null -
Input #0, matroska,webm, from 'G:\Аниме\Онгоинги\!_10_Весна_2018\Потерянная песня\[SHIZA Project] Lost Song ONA [01] [MVO]_HEVC.mkv':
  Metadata:
    ENCODER         : Lavf61.7.100
  Duration: 00:23:57.18, start: -0.021000, bitrate: 620 kb/s
  Stream #0:0(jpn): Video: hevc (Main 10), yuv420p10le(tv, bt709, progressive), 1280x720 [SAR 1:1 DAR 16:9], 23.98 fps, 23.98 tbr, 1k tbn
      Metadata:
        title           : www.SHIZA-Project.com
        ENCODER         : Lavc61.19.100 libx265
        BPS             : 424760
        DURATION        : 00:23:57.102708333
        NUMBER_OF_FRAMES: 34456
        NUMBER_OF_BYTES : 76303081
        _STATISTICS_WRITING_APP: mkvpropedit v66.0.0 ('Josie') 64-bit
        _STATISTICS_WRITING_DATE_UTC: 2025-07-19 14:14:56
        _STATISTICS_TAGS: BPS DURATION NUMBER_OF_FRAMES NUMBER_OF_BYTES
  Stream #0:1(rus): Audio: aac (LC), 48000 Hz, stereo, fltp (default)
      Metadata:
        title           : MVO SHIZA Project
        ENCODER         : Lavc61.19.100 aac
        BPS             : 191612
        DURATION        : 00:23:57.162000000
        NUMBER_OF_FRAMES: 67368
        NUMBER_OF_BYTES : 34422250
        _STATISTICS_WRITING_APP: mkvpropedit v66.0.0 ('Josie') 64-bit
        _STATISTICS_WRITING_DATE_UTC: 2025-07-19 14:14:56
        _STATISTICS_TAGS: BPS DURATION NUMBER_OF_FRAMES NUMBER_OF_BYTES
  Stream #0:2(rus): Subtitle: ass (ssa) (default)
      Metadata:
        BPS             : 17
        DURATION        : 00:17:37.300000000
        NUMBER_OF_FRAMES: 32
        NUMBER_OF_BYTES : 2349
        _STATISTICS_WRITING_APP: mkvpropedit v66.0.0 ('Josie') 64-bit
        _STATISTICS_WRITING_DATE_UTC: 2025-07-19 14:14:56
        _STATISTICS_TAGS: BPS DURATION NUMBER_OF_FRAMES NUMBER_OF_BYTES
Input #1, matroska,webm, from 'G:\Аниме\Онгоинги\!_10_Весна_2018\Потерянная песня\[SHIZA Project] Lost Song ONA [01] [MVO].mkv':
  Metadata:
    encoder         : libebml v1.3.0 + libmatroska v1.4.0
    creation_time   : 2018-04-11T13:27:55.000000Z
  Duration: 00:23:57.16, start: 0.000000, bitrate: 1726 kb/s
  Stream #1:0(jpn): Video: h264 (Main), yuv420p(progressive), 1280x720 [SAR 1:1 DAR 16:9], 23.98 fps, 23.98 tbr, 1k tbn
      Metadata:
        title           : www.SHIZA-Project.com
  Stream #1:1(rus): Audio: aac (LC), 48000 Hz, stereo, fltp (default)
      Metadata:
        title           : MVO SHIZA Project
  Stream #1:2(rus): Subtitle: ass (ssa) (default)
Stream mapping:
  Stream #0:0 (hevc) -> settb:default
  Stream #1:0 (h264) -> settb:default
  psnr:default -> Stream #0:0 (wrapped_avframe)
  Stream #0:1 -> #0:1 (aac (native) -> pcm_s16le (native))
[swscaler @ 000001ec0c7ebe40] No accelerated colorspace conversion found from yuv420p to bgr48le.
[swscaler @ 000001ec0c88d380] No accelerated colorspace conversion found from yuv420p to bgr48le.
[swscaler @ 000001ec0c939680] No accelerated colorspace conversion found from yuv420p to bgr48le.
[swscaler @ 000001ec0c99ba40] No accelerated colorspace conversion found from yuv420p to bgr48le.
[swscaler @ 000001ec0ca09a80] No accelerated colorspace conversion found from yuv420p to bgr48le.
[swscaler @ 000001ec0ca90340] No accelerated colorspace conversion found from yuv420p to bgr48le.
[swscaler @ 000001ec0caec040] No accelerated colorspace conversion found from yuv420p to bgr48le.
[swscaler @ 000001ec0cb07180] No accelerated colorspace conversion found from yuv420p to bgr48le.
[swscaler @ 000001ec0cbc2740] No accelerated colorspace conversion found from yuv420p to bgr48le.
[swscaler @ 000001ec0cc46040] No accelerated colorspace conversion found from yuv420p to bgr48le.
[swscaler @ 000001ec0ccb8040] No accelerated colorspace conversion found from yuv420p to bgr48le.
[swscaler @ 000001ec0cd15040] No accelerated colorspace conversion found from yuv420p to bgr48le.
[swscaler @ 000001ec0cd7f040] No accelerated colorspace conversion found from yuv420p to bgr48le.
[swscaler @ 000001ec0ce02040] No accelerated colorspace conversion found from yuv420p to bgr48le.
[swscaler @ 000001ec0ce78040] No accelerated colorspace conversion found from yuv420p to bgr48le.
[swscaler @ 000001ec0cee5040] No accelerated colorspace conversion found from yuv420p to bgr48le.
Output #0, null, to 'pipe:':
  Metadata:
    encoder         : Lavf61.7.100
  Stream #0:0: Video: wrapped_avframe, yuv420p10le(tv, bt709, progressive), 1280x720 [SAR 1:1 DAR 16:9], q=2-31, 200 kb/s, 23.98 fps, 23.98 tbn
      Metadata:
        encoder         : Lavc61.19.100 wrapped_avframe
  Stream #0:1(rus): Audio: pcm_s16le, 48000 Hz, stereo, s16, 1536 kb/s (default)
      Metadata:
        title           : MVO SHIZA Project
        _STATISTICS_TAGS: BPS DURATION NUMBER_OF_FRAMES NUMBER_OF_BYTES
        BPS             : 191612
        DURATION        : 00:23:57.162000000
        NUMBER_OF_FRAMES: 67368
        NUMBER_OF_BYTES : 34422250
        _STATISTICS_WRITING_APP: mkvpropedit v66.0.0 ('Josie') 64-bit
        _STATISTICS_WRITING_DATE_UTC: 2025-07-19 14:14:56
        encoder         : Lavc61.19.100 pcm_s16le
frame=   80 fps=0.0 q=-0.0 size=N/A time=00:00:03.33 bitrate=N/A speed= 6.4x    frame=  166 fps=162 q=-0.0 size=N/A time=00:00:06.92 bitrate=N/A speed=6.74x    frame=  267 fps=172 q=-0.0 size=N/A time=00:00:11.13 bitrate=N/A speed=7.18x    frame=  362 fps=175 q=-0.0 size=N/A time=00:00:15.09 bitrate=N/A speed=7.29x    frame=  448 fps=173 q=-0.0 size=N/A time=00:00:18.68 bitrate=N/A speed=7.24x    frame=  550 fps=178 q=-0.0 size=N/A time=00:00:22.93 bitrate=N/A speed=7.42x    frame=  631 fps=175 q=-0.0 size=N/A time=00:00:26.31 bitrate=N/A speed=7.28x    frame=  736 fps=179 q=-0.0 size=N/A time=00:00:30.69 bitrate=N/A speed=7.45x    frame=  832 fps=179 q=-0.0 size=N/A time=00:00:34.70 bitrate=N/A speed=7.47x    frame=  927 fps=180 q=-0.0 size=N/A time=00:00:38.66 bitrate=N/A speed=7.49x    frame= 1024 fps=181 q=-0.0 size=N/A time=00:00:42.70 bitrate=N/A speed=7.53x    frame= 1122 fps=181 q=-0.0 size=N/A time=00:00:46.79 bitrate=N/A speed=7.57x    frame= 1217 fps=182 q=-0.0 size=N/A time=00:00:50.75 bitrate=N/A speed=7.57x    frame= 1316 fps=182 q=-0.0 size=N/A time=00:00:54.88 bitrate=N/A speed= 7.6x    frame= 1422 fps=184 q=-0.0 size=N/A time=00:00:59.30 bitrate=N/A speed=7.67x    frame= 1521 fps=184 q=-0.0 size=N/A time=00:01:03.43 bitrate=N/A speed=7.68x    frame= 1620 fps=185 q=-0.0 size=N/A time=00:01:07.56 bitrate=N/A speed=7.71x    frame= 1709 fps=184 q=-0.0 size=N/A time=00:01:11.27 bitrate=N/A speed=7.67x    frame= 1818 fps=186 q=-0.0 size=N/A time=00:01:15.82 bitrate=N/A speed=7.74x    frame= 1917 fps=186 q=-0.0 size=N/A time=00:01:19.95 bitrate=N/A speed=7.75x    frame= 2015 fps=186 q=-0.0 size=N/A time=00:01:24.04 bitrate=N/A speed=7.76x    frame= 2116 fps=186 q=-0.0 size=N/A time=00:01:28.25 bitrate=N/A speed=7.77x    frame= 2215 fps=187 q=-0.0 size=N/A time=00:01:32.38 bitrate=N/A speed=7.79x    frame= 2315 fps=187 q=-0.0 size=N/A time=00:01:36.55 bitrate=N/A speed= 7.8x    frame= 2413 fps=187 q=-0.0 size=N/A time=00:01:40.64 bitrate=N/A speed=7.81x    frame= 2512 fps=187 q=-0.0 size=N/A time=00:01:44.77 bitrate=N/A speed=7.81x    frame= 2608 fps=187 q=-0.0 size=N/A time=00:01:48.77 bitrate=N/A speed=7.81x    frame= 2702 fps=187 q=-0.0 size=N/A time=00:01:52.69 bitrate=N/A speed=7.81x    frame= 2806 fps=188 q=-0.0 size=N/A time=00:01:57.03 bitrate=N/A speed=7.82x    frame= 2902 fps=188 q=-0.0 size=N/A time=00:02:01.03 bitrate=N/A speed=7.82x    frame= 2999 fps=188 q=-0.0 size=N/A time=00:02:05.08 bitrate=N/A speed=7.83x    frame= 3095 fps=188 q=-0.0 size=N/A time=00:02:09.08 bitrate=N/A speed=7.82x    frame= 3182 fps=187 q=-0.0 size=N/A time=00:02:12.71 bitrate=N/A speed= 7.8x    frame= 3276 fps=187 q=-0.0 size=N/A time=00:02:16.63 bitrate=N/A speed=7.79x    frame= 3380 fps=187 q=-0.0 size=N/A time=00:02:20.97 bitrate=N/A speed=7.81x    frame= 3479 fps=187 q=-0.0 size=N/A time=00:02:25.10 bitrate=N/A speed=7.82x    frame= 3573 fps=187 q=-0.0 size=N/A time=00:02:29.02 bitrate=N/A speed=7.81x    frame= 3667 fps=187 q=-0.0 size=N/A time=00:02:32.94 bitrate=N/A speed=7.81x    frame= 3758 fps=187 q=-0.0 size=N/A time=00:02:36.73 bitrate=N/A speed= 7.8x    frame= 3860 fps=187 q=-0.0 size=N/A time=00:02:40.99 bitrate=N/A speed=7.81x    frame= 3971 fps=188 q=-0.0 size=N/A time=00:02:45.62 bitrate=N/A speed=7.83x    frame= 4065 fps=188 q=-0.0 size=N/A time=00:02:49.54 bitrate=N/A speed=7.83x    frame= 4169 fps=188 q=-0.0 size=N/A time=00:02:53.88 bitrate=N/A speed=7.84x    frame= 4267 fps=188 q=-0.0 size=N/A time=00:02:57.96 bitrate=N/A speed=7.85x    frame= 4369 fps=188 q=-0.0 size=N/A time=00:03:02.22 bitrate=N/A speed=7.85x    frame= 4467 fps=188 q=-0.0 size=N/A time=00:03:06.31 bitrate=N/A speed=7.86x    frame= 4571 fps=189 q=-0.0 size=N/A time=00:03:10.64 bitrate=N/A speed=7.87x    frame= 4666 fps=188 q=-0.0 size=N/A time=00:03:14.61 bitrate=N/A speed=7.86x    frame= 4771 fps=189 q=-0.0 size=N/A time=00:03:18.99 bitrate=N/A speed=7.88x    frame= 4872 fps=189 q=-0.0 size=N/A time=00:03:23.20 bitrate=N/A speed=7.88x    frame= 4965 fps=189 q=-0.0 size=N/A time=00:03:27.08 bitrate=N/A speed=7.87x    frame= 5076 fps=189 q=-0.0 size=N/A time=00:03:31.71 bitrate=N/A speed= 7.9x    frame= 5175 fps=189 q=-0.0 size=N/A time=00:03:35.84 bitrate=N/A speed= 7.9x    frame= 5274 fps=189 q=-0.0 size=N/A time=00:03:39.96 bitrate=N/A speed= 7.9x    frame= 5363 fps=189 q=-0.0 size=N/A time=00:03:43.68 bitrate=N/A speed=7.89x    frame= 5475 fps=190 q=-0.0 size=N/A time=00:03:48.35 bitrate=N/A speed=7.91x    frame= 5576 fps=190 q=-0.0 size=N/A time=00:03:52.56 bitrate=N/A speed=7.91x    frame= 5676 fps=190 q=-0.0 size=N/A time=00:03:56.73 bitrate=N/A speed=7.91x    frame= 5769 fps=190 q=-0.0 size=N/A time=00:04:00.61 bitrate=N/A speed= 7.9x    frame= 5876 fps=190 q=-0.0 size=N/A time=00:04:05.07 bitrate=N/A speed=7.92x    frame= 5972 fps=190 q=-0.0 size=N/A time=00:04:09.08 bitrate=N/A speed=7.92x    frame= 6069 fps=190 q=-0.0 size=N/A time=00:04:13.12 bitrate=N/A speed=7.91x    frame= 6167 fps=190 q=-0.0 size=N/A time=00:04:17.21 bitrate=N/A speed=7.91x    frame= 6266 fps=190 q=-0.0 size=N/A time=00:04:21.34 bitrate=N/A speed=7.91x    frame= 6365 fps=190 q=-0.0 size=N/A time=00:04:25.47 bitrate=N/A speed=7.92x    frame= 6465 fps=190 q=-0.0 size=N/A time=00:04:29.64 bitrate=N/A speed=7.92x    frame= 6564 fps=190 q=-0.0 size=N/A time=00:04:33.77 bitrate=N/A speed=7.92x    frame= 6668 fps=190 q=-0.0 size=N/A time=00:04:38.11 bitrate=N/A speed=7.93x    frame= 6756 fps=190 q=-0.0 size=N/A time=00:04:41.78 bitrate=N/A speed=7.91x    frame= 6871 fps=190 q=-0.0 size=N/A time=00:04:46.57 bitrate=N/A speed=7.94x    frame= 6971 fps=190 q=-0.0 size=N/A time=00:04:50.74 bitrate=N/A speed=7.94x    frame= 7074 fps=190 q=-0.0 size=N/A time=00:04:55.04 bitrate=N/A speed=7.94x    frame= 7176 fps=191 q=-0.0 size=N/A time=00:04:59.29 bitrate=N/A speed=7.95x    frame= 7271 fps=190 q=-0.0 size=N/A time=00:05:03.26 bitrate=N/A speed=7.94x    frame= 7375 fps=191 q=-0.0 size=N/A time=00:05:07.59 bitrate=N/A speed=7.95x    frame= 7476 fps=191 q=-0.0 size=N/A time=00:05:11.81 bitrate=N/A speed=7.95x    frame= 7571 fps=191 q=-0.0 size=N/A time=00:05:15.77 bitrate=N/A speed=7.95x    frame= 7679 fps=191 q=-0.0 size=N/A time=00:05:20.27 bitrate=N/A speed=7.96x    frame= 7774 fps=191 q=-0.0 size=N/A time=00:05:24.24 bitrate=N/A speed=7.95x    frame= 7878 fps=191 q=-0.0 size=N/A time=00:05:28.57 bitrate=N/A speed=7.96x    frame= 7976 fps=191 q=-0.0 size=N/A time=00:05:32.66 bitrate=N/A speed=7.96x    frame= 8077 fps=191 q=-0.0 size=N/A time=00:05:36.87 bitrate=N/A speed=7.96x    frame= 8172 fps=191 q=-0.0 size=N/A time=00:05:40.84 bitrate=N/A speed=7.96x    frame= 8269 fps=191 q=-0.0 size=N/A time=00:05:44.88 bitrate=N/A speed=7.95x    frame= 8368 fps=191 q=-0.0 size=N/A time=00:05:49.01 bitrate=N/A speed=7.96x    frame= 8463 fps=191 q=-0.0 size=N/A time=00:05:52.97 bitrate=N/A speed=7.95x    frame= 8563 fps=191 q=-0.0 size=N/A time=00:05:57.14 bitrate=N/A speed=7.95x    frame= 8663 fps=191 q=-0.0 size=N/A time=00:06:01.31 bitrate=N/A speed=7.95x    frame= 8760 fps=191 q=-0.0 size=N/A time=00:06:05.36 bitrate=N/A speed=7.95x    frame= 8862 fps=191 q=-0.0 size=N/A time=00:06:09.61 bitrate=N/A speed=7.96x    frame= 8959 fps=191 q=-0.0 size=N/A time=00:06:13.66 bitrate=N/A speed=7.96x    frame= 9058 fps=191 q=-0.0 size=N/A time=00:06:17.79 bitrate=N/A speed=7.96x    frame= 9155 fps=191 q=-0.0 size=N/A time=00:06:21.83 bitrate=N/A speed=7.95x    frame= 9246 fps=191 q=-0.0 size=N/A time=00:06:25.63 bitrate=N/A speed=7.95x    frame= 9338 fps=190 q=-0.0 size=N/A time=00:06:29.47 bitrate=N/A speed=7.94x    frame= 9432 fps=190 q=-0.0 size=N/A time=00:06:33.39 bitrate=N/A speed=7.94x    frame= 9527 fps=190 q=-0.0 size=N/A time=00:06:37.35 bitrate=N/A speed=7.94x    frame= 9617 fps=190 q=-0.0 size=N/A time=00:06:41.10 bitrate=N/A speed=7.93x    frame= 9717 fps=190 q=-0.0 size=N/A time=00:06:45.27 bitrate=N/A speed=7.93x    frame= 9813 fps=190 q=-0.0 size=N/A time=00:06:49.28 bitrate=N/A speed=7.93x    frame= 9907 fps=190 q=-0.0 size=N/A time=00:06:53.20 bitrate=N/A speed=7.93x    frame=10001 fps=190 q=-0.0 size=N/A time=00:06:57.12 bitrate=N/A speed=7.92x    frame=10094 fps=190 q=-0.0 size=N/A time=00:07:01.00 bitrate=N/A speed=7.92x    frame=10194 fps=190 q=-0.0 size=N/A time=00:07:05.17 bitrate=N/A speed=7.92x    frame=10295 fps=190 q=-0.0 size=N/A time=00:07:09.38 bitrate=N/A speed=7.92x    frame=10391 fps=190 q=-0.0 size=N/A time=00:07:13.39 bitrate=N/A speed=7.92x    frame=10489 fps=190 q=-0.0 size=N/A time=00:07:17.47 bitrate=N/A speed=7.92x    frame=10581 fps=190 q=-0.0 size=N/A time=00:07:21.31 bitrate=N/A speed=7.92x    frame=10684 fps=190 q=-0.0 size=N/A time=00:07:25.61 bitrate=N/A speed=7.92x    frame=10785 fps=190 q=-0.0 size=N/A time=00:07:29.82 bitrate=N/A speed=7.92x    frame=10887 fps=190 q=-0.0 size=N/A time=00:07:34.07 bitrate=N/A speed=7.93x    frame=10984 fps=190 q=-0.0 size=N/A time=00:07:38.12 bitrate=N/A speed=7.93x    frame=11086 fps=190 q=-0.0 size=N/A time=00:07:42.37 bitrate=N/A speed=7.93x    frame=11179 fps=190 q=-0.0 size=N/A time=00:07:46.25 bitrate=N/A speed=7.92x    frame=11281 fps=190 q=-0.0 size=N/A time=00:07:50.51 bitrate=N/A speed=7.93x    frame=11384 fps=190 q=-0.0 size=N/A time=00:07:54.80 bitrate=N/A speed=7.93x    frame=11483 fps=190 q=-0.0 size=N/A time=00:07:58.93 bitrate=N/A speed=7.93x    frame=11584 fps=190 q=-0.0 size=N/A time=00:08:03.14 bitrate=N/A speed=7.94x    frame=11684 fps=190 q=-0.0 size=N/A time=00:08:07.32 bitrate=N/A speed=7.94x    frame=11776 fps=190 q=-0.0 size=N/A time=00:08:11.15 bitrate=N/A speed=7.93x    frame=11872 fps=190 q=-0.0 size=N/A time=00:08:15.16 bitrate=N/A speed=7.93x    frame=11972 fps=190 q=-0.0 size=N/A time=00:08:19.33 bitrate=N/A speed=7.93x    frame=12073 fps=190 q=-0.0 size=N/A time=00:08:23.54 bitrate=N/A speed=7.93x    frame=12168 fps=190 q=-0.0 size=N/A time=00:08:27.50 bitrate=N/A speed=7.93x    frame=12274 fps=190 q=-0.0 size=N/A time=00:08:31.92 bitrate=N/A speed=7.94x    frame=12377 fps=190 q=-0.0 size=N/A time=00:08:36.22 bitrate=N/A speed=7.94x    frame=12477 fps=190 q=-0.0 size=N/A time=00:08:40.39 bitrate=N/A speed=7.94x    frame=12576 fps=190 q=-0.0 size=N/A time=00:08:44.52 bitrate=N/A speed=7.94x    frame=12678 fps=190 q=-0.0 size=N/A time=00:08:48.77 bitrate=N/A speed=7.94x    frame=12782 fps=191 q=-0.0 size=N/A time=00:08:53.11 bitrate=N/A speed=7.95x    frame=12881 fps=191 q=-0.0 size=N/A time=00:08:57.24 bitrate=N/A speed=7.95x    frame=12979 fps=191 q=-0.0 size=N/A time=00:09:01.33 bitrate=N/A speed=7.95x    frame=13081 fps=191 q=-0.0 size=N/A time=00:09:05.58 bitrate=N/A speed=7.95x    frame=13181 fps=191 q=-0.0 size=N/A time=00:09:09.75 bitrate=N/A speed=7.95x    frame=13285 fps=191 q=-0.0 size=N/A time=00:09:14.09 bitrate=N/A speed=7.95x    frame=13388 fps=191 q=-0.0 size=N/A time=00:09:18.39 bitrate=N/A speed=7.96x    frame=13493 fps=191 q=-0.0 size=N/A time=00:09:22.77 bitrate=N/A speed=7.96x    frame=13585 fps=191 q=-0.0 size=N/A time=00:09:26.60 bitrate=N/A speed=7.96x    frame=13691 fps=191 q=-0.0 size=N/A time=00:09:31.02 bitrate=N/A speed=7.96x    frame=13793 fps=191 q=-0.0 size=N/A time=00:09:35.28 bitrate=N/A speed=7.96x    frame=13903 fps=191 q=-0.0 size=N/A time=00:09:39.87 bitrate=N/A speed=7.97x    frame=14000 fps=191 q=-0.0 size=N/A time=00:09:43.91 bitrate=N/A speed=7.97x    frame=14097 fps=191 q=-0.0 size=N/A time=00:09:47.96 bitrate=N/A speed=7.97x    frame=14201 fps=191 q=-0.0 size=N/A time=00:09:52.30 bitrate=N/A speed=7.97x    frame=14307 fps=191 q=-0.0 size=N/A time=00:09:56.72 bitrate=N/A speed=7.97x    frame=14401 fps=191 q=-0.0 size=N/A time=00:10:00.64 bitrate=N/A speed=7.97x    frame=14499 fps=191 q=-0.0 size=N/A time=00:10:04.72 bitrate=N/A speed=7.97x    frame=14597 fps=191 q=-0.0 size=N/A time=00:10:08.81 bitrate=N/A speed=7.97x    frame=14689 fps=191 q=-0.0 size=N/A time=00:10:12.65 bitrate=N/A speed=7.97x    frame=14778 fps=191 q=-0.0 size=N/A time=00:10:16.36 bitrate=N/A speed=7.96x    frame=14871 fps=191 q=-0.0 size=N/A time=00:10:20.24 bitrate=N/A speed=7.96x    frame=14967 fps=191 q=-0.0 size=N/A time=00:10:24.24 bitrate=N/A speed=7.96x    frame=15064 fps=191 q=-0.0 size=N/A time=00:10:28.29 bitrate=N/A speed=7.96x    frame=15166 fps=191 q=-0.0 size=N/A time=00:10:32.54 bitrate=N/A speed=7.96x    frame=15265 fps=191 q=-0.0 size=N/A time=00:10:36.67 bitrate=N/A speed=7.96x    frame=15363 fps=191 q=-0.0 size=N/A time=00:10:40.76 bitrate=N/A speed=7.96x    frame=15456 fps=191 q=-0.0 size=N/A time=00:10:44.64 bitrate=N/A speed=7.96x    frame=15555 fps=191 q=-0.0 size=N/A time=00:10:48.77 bitrate=N/A speed=7.96x    frame=15653 fps=191 q=-0.0 size=N/A time=00:10:52.86 bitrate=N/A speed=7.96x    frame=15748 fps=191 q=-0.0 size=N/A time=00:10:56.82 bitrate=N/A speed=7.96x    frame=15846 fps=191 q=-0.0 size=N/A time=00:11:00.91 bitrate=N/A speed=7.95x    frame=15942 fps=191 q=-0.0 size=N/A time=00:11:04.91 bitrate=N/A speed=7.95x    frame=16039 fps=191 q=-0.0 size=N/A time=00:11:08.95 bitrate=N/A speed=7.95x    frame=16150 fps=191 q=-0.0 size=N/A time=00:11:13.58 bitrate=N/A speed=7.96x    frame=16245 fps=191 q=-0.0 size=N/A time=00:11:17.55 bitrate=N/A speed=7.96x    frame=16350 fps=191 q=-0.0 size=N/A time=00:11:21.93 bitrate=N/A speed=7.96x    frame=16448 fps=191 q=-0.0 size=N/A time=00:11:26.01 bitrate=N/A speed=7.96x    frame=16546 fps=191 q=-0.0 size=N/A time=00:11:30.10 bitrate=N/A speed=7.96x    frame=16644 fps=191 q=-0.0 size=N/A time=00:11:34.19 bitrate=N/A speed=7.96x    frame=16732 fps=191 q=-0.0 size=N/A time=00:11:37.86 bitrate=N/A speed=7.96x    frame=16840 fps=191 q=-0.0 size=N/A time=00:11:42.36 bitrate=N/A speed=7.96x    frame=16931 fps=191 q=-0.0 size=N/A time=00:11:46.16 bitrate=N/A speed=7.96x    frame=17038 fps=191 q=-0.0 size=N/A time=00:11:50.62 bitrate=N/A speed=7.96x    frame=17139 fps=191 q=-0.0 size=N/A time=00:11:54.83 bitrate=N/A speed=7.96x    frame=17233 fps=191 q=-0.0 size=N/A time=00:11:58.75 bitrate=N/A speed=7.96x    frame=17331 fps=191 q=-0.0 size=N/A time=00:12:02.84 bitrate=N/A speed=7.96x    frame=17428 fps=191 q=-0.0 size=N/A time=00:12:06.89 bitrate=N/A speed=7.96x    frame=17526 fps=191 q=-0.0 size=N/A time=00:12:10.98 bitrate=N/A speed=7.96x    frame=17621 fps=191 q=-0.0 size=N/A time=00:12:14.94 bitrate=N/A speed=7.96x    frame=17718 fps=191 q=-0.0 size=N/A time=00:12:18.98 bitrate=N/A speed=7.96x    frame=17813 fps=191 q=-0.0 size=N/A time=00:12:22.95 bitrate=N/A speed=7.96x    frame=17908 fps=191 q=-0.0 size=N/A time=00:12:26.91 bitrate=N/A speed=7.95x    frame=18007 fps=191 q=-0.0 size=N/A time=00:12:31.04 bitrate=N/A speed=7.95x    frame=18104 fps=191 q=-0.0 size=N/A time=00:12:35.08 bitrate=N/A speed=7.95x    frame=18189 fps=191 q=-0.0 size=N/A time=00:12:38.63 bitrate=N/A speed=7.95x    frame=18294 fps=191 q=-0.0 size=N/A time=00:12:43.01 bitrate=N/A speed=7.95x    frame=18402 fps=191 q=-0.0 size=N/A time=00:12:47.51 bitrate=N/A speed=7.95x    frame=18500 fps=191 q=-0.0 size=N/A time=00:12:51.60 bitrate=N/A speed=7.95x    frame=18600 fps=191 q=-0.0 size=N/A time=00:12:55.77 bitrate=N/A speed=7.96x    frame=18699 fps=191 q=-0.0 size=N/A time=00:12:59.90 bitrate=N/A speed=7.95x    frame=18803 fps=191 q=-0.0 size=N/A time=00:13:04.24 bitrate=N/A speed=7.96x    frame=18905 fps=191 q=-0.0 size=N/A time=00:13:08.49 bitrate=N/A speed=7.96x    frame=18999 fps=191 q=-0.0 size=N/A time=00:13:12.41 bitrate=N/A speed=7.96x    frame=19105 fps=191 q=-0.0 size=N/A time=00:13:16.83 bitrate=N/A speed=7.96x    frame=19207 fps=191 q=-0.0 size=N/A time=00:13:21.09 bitrate=N/A speed=7.96x    frame=19295 fps=191 q=-0.0 size=N/A time=00:13:24.76 bitrate=N/A speed=7.96x    frame=19405 fps=191 q=-0.0 size=N/A time=00:13:29.35 bitrate=N/A speed=7.96x    frame=19508 fps=191 q=-0.0 size=N/A time=00:13:33.64 bitrate=N/A speed=7.96x    frame=19601 fps=191 q=-0.0 size=N/A time=00:13:37.52 bitrate=N/A speed=7.96x    frame=19703 fps=191 q=-0.0 size=N/A time=00:13:41.77 bitrate=N/A speed=7.96x    frame=19802 fps=191 q=-0.0 size=N/A time=00:13:45.90 bitrate=N/A speed=7.96x    frame=19902 fps=191 q=-0.0 size=N/A time=00:13:50.07 bitrate=N/A speed=7.96x    frame=19997 fps=191 q=-0.0 size=N/A time=00:13:54.04 bitrate=N/A speed=7.96x    frame=20092 fps=191 q=-0.0 size=N/A time=00:13:58.00 bitrate=N/A speed=7.96x    frame=20193 fps=191 q=-0.0 size=N/A time=00:14:02.21 bitrate=N/A speed=7.96x    frame=20284 fps=191 q=-0.0 size=N/A time=00:14:06.01 bitrate=N/A speed=7.96x    frame=20388 fps=191 q=-0.0 size=N/A time=00:14:10.34 bitrate=N/A speed=7.96x    frame=20476 fps=191 q=-0.0 size=N/A time=00:14:14.01 bitrate=N/A speed=7.96x    frame=20577 fps=191 q=-0.0 size=N/A time=00:14:18.23 bitrate=N/A speed=7.96x    frame=20677 fps=191 q=-0.0 size=N/A time=00:14:22.40 bitrate=N/A speed=7.96x    frame=20766 fps=191 q=-0.0 size=N/A time=00:14:26.11 bitrate=N/A speed=7.95x    frame=20870 fps=191 q=-0.0 size=N/A time=00:14:30.45 bitrate=N/A speed=7.96x    frame=20974 fps=191 q=-0.0 size=N/A time=00:14:34.79 bitrate=N/A speed=7.96x    frame=21068 fps=191 q=-0.0 size=N/A time=00:14:38.71 bitrate=N/A speed=7.96x    frame=21176 fps=191 q=-0.0 size=N/A time=00:14:43.21 bitrate=N/A speed=7.96x    frame=21277 fps=191 q=-0.0 size=N/A time=00:14:47.42 bitrate=N/A speed=7.96x    frame=21373 fps=191 q=-0.0 size=N/A time=00:14:51.43 bitrate=N/A speed=7.96x    frame=21470 fps=191 q=-0.0 size=N/A time=00:14:55.47 bitrate=N/A speed=7.96x    frame=21568 fps=191 q=-0.0 size=N/A time=00:14:59.56 bitrate=N/A speed=7.96x    frame=21669 fps=191 q=-0.0 size=N/A time=00:15:03.77 bitrate=N/A speed=7.96x    frame=21767 fps=191 q=-0.0 size=N/A time=00:15:07.86 bitrate=N/A speed=7.96x    frame=21871 fps=191 q=-0.0 size=N/A time=00:15:12.20 bitrate=N/A speed=7.96x    frame=21971 fps=191 q=-0.0 size=N/A time=00:15:16.37 bitrate=N/A speed=7.96x    frame=22070 fps=191 q=-0.0 size=N/A time=00:15:20.50 bitrate=N/A speed=7.96x    frame=22161 fps=191 q=-0.0 size=N/A time=00:15:24.29 bitrate=N/A speed=7.96x    frame=22269 fps=191 q=-0.0 size=N/A time=00:15:28.80 bitrate=N/A speed=7.97x    frame=22367 fps=191 q=-0.0 size=N/A time=00:15:32.89 bitrate=N/A speed=7.96x    frame=22467 fps=191 q=-0.0 size=N/A time=00:15:37.06 bitrate=N/A speed=7.97x    frame=22570 fps=191 q=-0.0 size=N/A time=00:15:41.35 bitrate=N/A speed=7.97x    frame=22675 fps=191 q=-0.0 size=N/A time=00:15:45.73 bitrate=N/A speed=7.97x    frame=22775 fps=191 q=-0.0 size=N/A time=00:15:49.90 bitrate=N/A speed=7.97x    frame=22872 fps=191 q=-0.0 size=N/A time=00:15:53.95 bitrate=N/A speed=7.97x    frame=22978 fps=191 q=-0.0 size=N/A time=00:15:58.37 bitrate=N/A speed=7.97x    frame=23076 fps=191 q=-0.0 size=N/A time=00:16:02.46 bitrate=N/A speed=7.97x    frame=23178 fps=191 q=-0.0 size=N/A time=00:16:06.71 bitrate=N/A speed=7.97x    frame=23280 fps=191 q=-0.0 size=N/A time=00:16:10.97 bitrate=N/A speed=7.97x    frame=23378 fps=191 q=-0.0 size=N/A time=00:16:15.05 bitrate=N/A speed=7.97x    frame=23470 fps=191 q=-0.0 size=N/A time=00:16:18.89 bitrate=N/A speed=7.97x    frame=23576 fps=191 q=-0.0 size=N/A time=00:16:23.31 bitrate=N/A speed=7.97x    frame=23677 fps=191 q=-0.0 size=N/A time=00:16:27.52 bitrate=N/A speed=7.98x    frame=23778 fps=191 q=-0.0 size=N/A time=00:16:31.74 bitrate=N/A speed=7.98x    frame=23874 fps=191 q=-0.0 size=N/A time=00:16:35.74 bitrate=N/A speed=7.98x    frame=23968 fps=191 q=-0.0 size=N/A time=00:16:39.66 bitrate=N/A speed=7.97x    frame=24074 fps=191 q=-0.0 size=N/A time=00:16:44.08 bitrate=N/A speed=7.98x    frame=24174 fps=191 q=-0.0 size=N/A time=00:16:48.25 bitrate=N/A speed=7.98x    frame=24272 fps=191 q=-0.0 size=N/A time=00:16:52.34 bitrate=N/A speed=7.98x    frame=24369 fps=191 q=-0.0 size=N/A time=00:16:56.39 bitrate=N/A speed=7.98x    frame=24473 fps=191 q=-0.0 size=N/A time=00:17:00.72 bitrate=N/A speed=7.98x    frame=24568 fps=191 q=-0.0 size=N/A time=00:17:04.69 bitrate=N/A speed=7.98x    frame=24660 fps=191 q=-0.0 size=N/A time=00:17:08.52 bitrate=N/A speed=7.97x    frame=24754 fps=191 q=-0.0 size=N/A time=00:17:12.44 bitrate=N/A speed=7.97x    frame=24850 fps=191 q=-0.0 size=N/A time=00:17:16.45 bitrate=N/A speed=7.97x    frame=24956 fps=191 q=-0.0 size=N/A time=00:17:20.87 bitrate=N/A speed=7.97x    frame=25051 fps=191 q=-0.0 size=N/A time=00:17:24.83 bitrate=N/A speed=7.97x    frame=25151 fps=191 q=-0.0 size=N/A time=00:17:29.00 bitrate=N/A speed=7.97x    frame=25247 fps=191 q=-0.0 size=N/A time=00:17:33.01 bitrate=N/A speed=7.97x    frame=25346 fps=191 q=-0.0 size=N/A time=00:17:37.13 bitrate=N/A speed=7.97x    frame=25442 fps=191 q=-0.0 size=N/A time=00:17:41.14 bitrate=N/A speed=7.97x    frame=25538 fps=191 q=-0.0 size=N/A time=00:17:45.14 bitrate=N/A speed=7.97x    frame=25635 fps=191 q=-0.0 size=N/A time=00:17:49.19 bitrate=N/A speed=7.97x    frame=25729 fps=191 q=-0.0 size=N/A time=00:17:53.11 bitrate=N/A speed=7.97x    frame=25822 fps=191 q=-0.0 size=N/A time=00:17:56.99 bitrate=N/A speed=7.97x    frame=25922 fps=191 q=-0.0 size=N/A time=00:18:01.16 bitrate=N/A speed=7.97x    frame=26003 fps=191 q=-0.0 size=N/A time=00:18:04.54 bitrate=N/A speed=7.96x    frame=26110 fps=191 q=-0.0 size=N/A time=00:18:09.00 bitrate=N/A speed=7.96x    frame=26197 fps=191 q=-0.0 size=N/A time=00:18:12.63 bitrate=N/A speed=7.96x    frame=26304 fps=191 q=-0.0 size=N/A time=00:18:17.09 bitrate=N/A speed=7.96x    frame=26403 fps=191 q=-0.0 size=N/A time=00:18:21.22 bitrate=N/A speed=7.96x    frame=26499 fps=191 q=-0.0 size=N/A time=00:18:25.22 bitrate=N/A speed=7.96x    frame=26591 fps=191 q=-0.0 size=N/A time=00:18:29.06 bitrate=N/A speed=7.96x    frame=26684 fps=191 q=-0.0 size=N/A time=00:18:32.94 bitrate=N/A speed=7.96x    frame=26786 fps=191 q=-0.0 size=N/A time=00:18:37.19 bitrate=N/A speed=7.96x    frame=26880 fps=191 q=-0.0 size=N/A time=00:18:41.12 bitrate=N/A speed=7.96x    frame=26979 fps=191 q=-0.0 size=N/A time=00:18:45.24 bitrate=N/A speed=7.96x    frame=27073 fps=191 q=-0.0 size=N/A time=00:18:49.16 bitrate=N/A speed=7.96x    frame=27172 fps=191 q=-0.0 size=N/A time=00:18:53.29 bitrate=N/A speed=7.96x    frame=27269 fps=191 q=-0.0 size=N/A time=00:18:57.34 bitrate=N/A speed=7.96x    frame=27358 fps=191 q=-0.0 size=N/A time=00:19:01.05 bitrate=N/A speed=7.96x    frame=27454 fps=191 q=-0.0 size=N/A time=00:19:05.06 bitrate=N/A speed=7.96x    frame=27556 fps=191 q=-0.0 size=N/A time=00:19:09.31 bitrate=N/A speed=7.96x    frame=27653 fps=191 q=-0.0 size=N/A time=00:19:13.36 bitrate=N/A speed=7.96x    frame=27750 fps=191 q=-0.0 size=N/A time=00:19:17.40 bitrate=N/A speed=7.96x    frame=27846 fps=191 q=-0.0 size=N/A time=00:19:21.41 bitrate=N/A speed=7.95x    frame=27942 fps=191 q=-0.0 size=N/A time=00:19:25.41 bitrate=N/A speed=7.95x    frame=28036 fps=191 q=-0.0 size=N/A time=00:19:29.33 bitrate=N/A speed=7.95x    frame=28132 fps=191 q=-0.0 size=N/A time=00:19:33.33 bitrate=N/A speed=7.95x    frame=28231 fps=191 q=-0.0 size=N/A time=00:19:37.46 bitrate=N/A speed=7.95x    frame=28316 fps=191 q=-0.0 size=N/A time=00:19:41.01 bitrate=N/A speed=7.95x    frame=28422 fps=191 q=-0.0 size=N/A time=00:19:45.43 bitrate=N/A speed=7.95x    frame=28522 fps=191 q=-0.0 size=N/A time=00:19:49.60 bitrate=N/A speed=7.95x    frame=28611 fps=191 q=-0.0 size=N/A time=00:19:53.31 bitrate=N/A speed=7.95x    frame=28722 fps=191 q=-0.0 size=N/A time=00:19:57.94 bitrate=N/A speed=7.95x    frame=28820 fps=191 q=-0.0 size=N/A time=00:20:02.03 bitrate=N/A speed=7.95x    frame=28923 fps=191 q=-0.0 size=N/A time=00:20:06.33 bitrate=N/A speed=7.95x    frame=29014 fps=191 q=-0.0 size=N/A time=00:20:10.12 bitrate=N/A speed=7.95x    frame=29120 fps=191 q=-0.0 size=N/A time=00:20:14.54 bitrate=N/A speed=7.95x    frame=29214 fps=191 q=-0.0 size=N/A time=00:20:18.46 bitrate=N/A speed=7.95x    frame=29317 fps=191 q=-0.0 size=N/A time=00:20:22.76 bitrate=N/A speed=7.95x    frame=29415 fps=191 q=-0.0 size=N/A time=00:20:26.85 bitrate=N/A speed=7.95x    frame=29510 fps=191 q=-0.0 size=N/A time=00:20:30.81 bitrate=N/A speed=7.95x    frame=29597 fps=191 q=-0.0 size=N/A time=00:20:34.44 bitrate=N/A speed=7.95x    frame=29696 fps=191 q=-0.0 size=N/A time=00:20:38.57 bitrate=N/A speed=7.95x    frame=29802 fps=191 q=-0.0 size=N/A time=00:20:42.99 bitrate=N/A speed=7.95x    frame=29895 fps=191 q=-0.0 size=N/A time=00:20:46.87 bitrate=N/A speed=7.95x    frame=29985 fps=191 q=-0.0 size=N/A time=00:20:50.62 bitrate=N/A speed=7.95x    frame=30089 fps=191 q=-0.0 size=N/A time=00:20:54.96 bitrate=N/A speed=7.95x    frame=30186 fps=191 q=-0.0 size=N/A time=00:20:59.00 bitrate=N/A speed=7.95x    frame=30278 fps=191 q=-0.0 size=N/A time=00:21:02.84 bitrate=N/A speed=7.95x    frame=30374 fps=191 q=-0.0 size=N/A time=00:21:06.84 bitrate=N/A speed=7.95x    frame=30471 fps=191 q=-0.0 size=N/A time=00:21:10.89 bitrate=N/A speed=7.95x    frame=30567 fps=191 q=-0.0 size=N/A time=00:21:14.89 bitrate=N/A speed=7.95x    frame=30663 fps=190 q=-0.0 size=N/A time=00:21:18.90 bitrate=N/A speed=7.94x    frame=30759 fps=190 q=-0.0 size=N/A time=00:21:22.90 bitrate=N/A speed=7.94x    frame=30845 fps=190 q=-0.0 size=N/A time=00:21:26.49 bitrate=N/A speed=7.94x    frame=30940 fps=190 q=-0.0 size=N/A time=00:21:30.45 bitrate=N/A speed=7.94x    frame=31042 fps=190 q=-0.0 size=N/A time=00:21:34.71 bitrate=N/A speed=7.94x    frame=31132 fps=190 q=-0.0 size=N/A time=00:21:38.46 bitrate=N/A speed=7.94x    frame=31225 fps=190 q=-0.0 size=N/A time=00:21:42.34 bitrate=N/A speed=7.94x    frame=31331 fps=190 q=-0.0 size=N/A time=00:21:46.76 bitrate=N/A speed=7.94x    frame=31426 fps=190 q=-0.0 size=N/A time=00:21:50.72 bitrate=N/A speed=7.94x    frame=31521 fps=190 q=-0.0 size=N/A time=00:21:54.68 bitrate=N/A speed=7.94x    frame=31613 fps=190 q=-0.0 size=N/A time=00:21:58.52 bitrate=N/A speed=7.94x    frame=31708 fps=190 q=-0.0 size=N/A time=00:22:02.48 bitrate=N/A speed=7.94x    frame=31800 fps=190 q=-0.0 size=N/A time=00:22:06.32 bitrate=N/A speed=7.93x    frame=31893 fps=190 q=-0.0 size=N/A time=00:22:10.20 bitrate=N/A speed=7.93x    frame=31993 fps=190 q=-0.0 size=N/A time=00:22:14.37 bitrate=N/A speed=7.93x    frame=32086 fps=190 q=-0.0 size=N/A time=00:22:18.25 bitrate=N/A speed=7.93x    frame=32180 fps=190 q=-0.0 size=N/A time=00:22:22.17 bitrate=N/A speed=7.93x    frame=32278 fps=190 q=-0.0 size=N/A time=00:22:26.26 bitrate=N/A speed=7.93x    frame=32381 fps=190 q=-0.0 size=N/A time=00:22:30.55 bitrate=N/A speed=7.93x    frame=32478 fps=190 q=-0.0 size=N/A time=00:22:34.60 bitrate=N/A speed=7.93x    frame=32577 fps=190 q=-0.0 size=N/A time=00:22:38.73 bitrate=N/A speed=7.93x    frame=32674 fps=190 q=-0.0 size=N/A time=00:22:42.77 bitrate=N/A speed=7.93x    frame=32771 fps=190 q=-0.0 size=N/A time=00:22:46.82 bitrate=N/A speed=7.93x    frame=32871 fps=190 q=-0.0 size=N/A time=00:22:50.99 bitrate=N/A speed=7.93x    frame=32965 fps=190 q=-0.0 size=N/A time=00:22:54.91 bitrate=N/A speed=7.93x    frame=33068 fps=190 q=-0.0 size=N/A time=00:22:59.21 bitrate=N/A speed=7.93x    frame=33163 fps=190 q=-0.0 size=N/A time=00:23:03.17 bitrate=N/A speed=7.93x    frame=33260 fps=190 q=-0.0 size=N/A time=00:23:07.21 bitrate=N/A speed=7.93x    frame=33357 fps=190 q=-0.0 size=N/A time=00:23:11.26 bitrate=N/A speed=7.93x    frame=33451 fps=190 q=-0.0 size=N/A time=00:23:15.18 bitrate=N/A speed=7.93x    frame=33549 fps=190 q=-0.0 size=N/A time=00:23:19.27 bitrate=N/A speed=7.93x    frame=33643 fps=190 q=-0.0 size=N/A time=00:23:23.19 bitrate=N/A speed=7.93x    frame=33731 fps=190 q=-0.0 size=N/A time=00:23:26.86 bitrate=N/A speed=7.93x    frame=33835 fps=190 q=-0.0 size=N/A time=00:23:31.20 bitrate=N/A speed=7.93x    frame=33922 fps=190 q=-0.0 size=N/A time=00:23:34.83 bitrate=N/A speed=7.93x    frame=34028 fps=190 q=-0.0 size=N/A time=00:23:39.25 bitrate=N/A speed=7.93x    frame=34121 fps=190 q=-0.0 size=N/A time=00:23:43.13 bitrate=N/A speed=7.93x    frame=34217 fps=190 q=-0.0 size=N/A time=00:23:47.13 bitrate=N/A speed=7.93x    frame=34316 fps=190 q=-0.0 size=N/A time=00:23:51.26 bitrate=N/A speed=7.93x    frame=34415 fps=190 q=-0.0 size=N/A time=00:23:55.39 bitrate=N/A speed=7.93x    [Parsed_psnr_10 @ 000001ec0bdfe800] PSNR y:45.373550 u:49.637747 v:49.315109 average:46.362500 min:41.304217 max:inf
[out#0/null @ 000001ec007bc700] video:14805KiB audio:269472KiB subtitle:0KiB other streams:0KiB global headers:0KiB muxing overhead: unknown
frame=34456 fps=190 q=-0.0 Lsize=N/A time=00:23:57.10 bitrate=N/A speed=7.93x    
